Coordinates
version=1
nRows=14
nColumns=36
inDegrees=yes

Units are S.I. units (second, meters, Newtons, ...)
If the header above contains a line with 'inDegrees', this indicates whether rotational values are in degrees (yes) or radians (no).

endheader
time	pelvis_tilt	pelvis_list	pelvis_rotation	pelvis_tx	pelvis_ty	pelvis_tz	hip_flexion_r	hip_adduction_r	hip_rotation_r	knee_angle_r	knee_angle_r_beta	ankle_angle_r	subtalar_angle_r	mtp_angle_r	hip_flexion_l	hip_adduction_l	hip_rotation_l	knee_angle_l	knee_angle_l_beta	ankle_angle_l	subtalar_angle_l	mtp_angle_l	lumbar_extension	lumbar_bending	lumbar_rotation	arm_flex_r	arm_add_r	arm_rot_r	elbow_flex_r	pro_sup_r	arm_flex_l	arm_add_l	arm_rot_l	elbow_flex_l	pro_sup_l
     15.15000000	      4.63684251	     -1.83065248	     -8.92300328	      0.39885853	      0.92135324	      0.70908560	     30.51978716	      3.28619806	      3.72136736	     32.88582651	      0.57396595	      7.38271769	    -11.69265718	     -7.49999987	     -8.31892748	      0.75929740	     -5.07646035	     14.08379310	      0.24580856	     13.45361158	    -11.20192325	     -7.49999987	    -18.44391082	      0.62220835	     -0.59370212	     -0.25996381	     -7.80465914	     -6.48061397	     15.81963836	     83.63209725	     20.03516804	    -12.92733016	      9.52917080	     29.35270260	     82.77279333
     15.16666670	      3.94147668	     -2.21219402	     -8.73777482	      0.39652823	      0.91444185	      0.70881792	     32.10201356	      3.60725279	      3.35715051	     29.75853920	      0.51938449	      8.32693246	    -10.99286404	     -7.49999987	     -8.69865869	      0.00637921	     -6.42754452	     14.53091913	      0.25361238	     13.91166448	    -11.45907115	     -7.49999987	    -18.25070298	      1.30450576	     -0.98358583	     -0.64946240	     -7.88795908	     -6.39460112	     16.27726676	     83.57035093	     20.59390728	    -13.14960191	      9.44837020	     30.34379305	     83.00680015
     15.18333330	      3.29898347	     -2.64826140	     -8.42265296	      0.39606709	      0.90892160	      0.70807068	     33.66124637	      3.93702005	      2.76575566	     27.41744330	      0.47852466	      9.52034274	    -10.03117856	     -7.49999987	     -9.01765153	     -0.84038789	     -7.80700887	     15.18038654	      0.26494773	     14.30505370	    -11.80854941	     -7.49999987	    -18.02627692	      2.05583534	     -1.39746891	     -0.97459003	     -8.05023998	     -6.08388283	     16.75524978	     83.39201578	     21.07162897	    -13.25047152	      9.32251790	     31.20446920	     83.11762711
     15.20000000	      2.73341154	     -3.14631934	     -7.98244764	      0.39728870	      0.90278062	      0.70741704	     34.91270553	      4.34982861	      2.22285406	     25.63674372	      0.44744559	     10.32262421	     -9.36724813	     -7.49999987	     -9.52326117	     -1.73094730	     -9.03241401	     15.67211349	      0.27352998	     14.44226707	    -12.11632297	     -7.49999987	    -17.61374937	      2.84450950	     -1.76493036	     -1.51437852	     -8.30093988	     -6.18393396	     17.30205658	     83.29999576	     21.46807987	    -13.23016126	      9.41390191	     31.72430006	     83.16172932
     15.21666670	      2.18479206	     -3.65972441	     -7.42879396	      0.39969784	      0.89531792	      0.70744867	     35.80639147	      4.79404470	      1.66409412	     24.43003866	      0.42638461	     11.10544417	     -8.54100193	     -7.49999987	    -10.16159924	     -2.62164475	     -9.92658951	     16.14113011	      0.28171587	     14.53542503	    -12.06383054	     -7.49999987	    -17.07161017	      3.64212648	     -1.86558074	     -2.25899266	     -8.64220361	     -6.37152453	     18.28877605	     82.72861332	     21.82766364	    -13.01465063	      9.70197525	     32.17243777	     83.11200808
     15.23333330	      1.43294086	     -4.23622934	     -6.87791636	      0.40414554	      0.88881685	      0.70854666	     36.47229986	      5.40670975	      1.14519955	     23.90697978	      0.41725551	     11.19707727	     -8.34482299	     -7.49999987	    -10.74749223	     -3.55203924	    -10.46282686	     16.70239650	      0.29151181	     14.64398254	    -11.71302839	     -7.49999987	    -15.92352937	      4.50128037	     -2.11993764	     -3.06193907	     -9.11329209	     -6.54049454	     19.04153404	     82.58963956	     21.69214798	    -12.82679655	      9.97837991	     32.38629758	     83.18540370
     15.25000000	      0.72296137	     -4.74843298	     -6.32481413	      0.41138665	      0.88555642	      0.71096090	     36.64589641	      6.05357307	      0.81146850	     24.26911416	      0.42357595	     10.84951743	     -8.50238468	     -7.49999987	    -11.51877092	     -4.37805272	    -10.51487545	     17.51886338	      0.30576185	     14.12705612	    -11.50099961	     -7.49999987	    -14.63688274	      5.41714562	     -2.24326999	     -3.69574332	     -9.58554814	     -6.66046212	     19.47878708	     82.43909201	     21.21555199	    -12.42811006	     10.11476427	     32.43075487	     83.11464976
     15.26666670	      0.05826071	     -5.22621869	     -5.72970963	      0.42159134	      0.88501466	      0.71460837	     36.33061137	      6.71603331	      0.49462372	     25.30470390	      0.44165040	      9.24917335	     -9.43114646	     -7.49999987	    -12.31337690	     -5.17181712	    -10.09091249	     18.67547958	      0.32594861	     12.53088848	    -11.33114077	     -7.49999987	    -13.11414126	      6.32826438	     -2.16409492	     -4.69324249	    -10.10705616	     -6.89802406	     20.87642654	     81.19261460	     20.45705916	    -11.75076417	     10.10702296	     31.83902661	     82.25318244
     15.28333330	     -0.27743183	     -5.64348212	     -5.16315712	      0.43248899	      0.88529183	      0.71846557	     35.48196040	      7.29851561	      0.20689060	     26.80785276	      0.46788530	      7.36428602	    -10.20007988	     -7.49999987	    -13.18792887	     -5.87530506	     -9.41069415	     20.21009979	      0.35273278	      9.36289994	    -11.38057732	     -7.49999987	    -11.74771588	      7.11426513	     -2.26144120	     -4.81726314	    -10.58766100	     -6.78262963	     21.17190603	     80.40560501	     19.22157716	    -11.07263852	      9.72611325	     31.03071901	     81.32738009
     15.30000000	     -0.22404037	     -5.94000485	     -4.77186094	      0.44021622	      0.88631428	      0.72110642	     34.28576641	      7.79865541	      0.18875947	     28.50184614	      0.49745106	      5.78201615	    -10.82568576	     -7.49999987	    -13.87163738	     -6.42122619	     -8.87506088	     22.38123981	      0.39062633	      4.95694349	    -11.68452010	     -7.49999987	    -10.98030197	      7.69450108	     -2.13269317	     -4.80513644	    -11.06874463	     -6.39602302	     21.80116555	     79.78940831	     17.98243953	    -10.42719629	      9.27202287	     30.21311302	     80.47889380
     15.31666670	      0.05381196	     -6.10062563	     -4.62305477	      0.44393878	      0.88862652	      0.72218571	     32.90555981	      8.22189842	      0.53270323	     30.04875931	      0.52444979	      4.88253573	    -11.39651059	     -7.49999987	    -13.92938435	     -6.82931135	     -8.64442251	     25.25110319	      0.44071489	     -0.07933190	    -12.00330418	     -7.49999987	    -10.75287987	      8.14671787	     -1.72520020	     -4.59778455	    -11.50097084	     -5.82372668	     22.37766321	     79.48168903	     16.93261462	     -9.79563394	      8.87006622	     29.22233520	     79.93334486
     15.33333330	      0.56738093	     -6.13571985	     -4.62782043	      0.44555952	      0.89334015	      0.72327383	     31.17662079	      8.51688633	      1.05850003	     31.10759625	      0.54292998	      4.61596284	    -11.85518082	     -7.49999987	    -13.25089869	     -7.14070726	     -8.50956761	     29.00272427	      0.50619303	     -5.58498836	    -12.72843085	     -7.49999987	    -11.08902541	      8.45562370	     -1.03174800	     -4.43405988	    -11.75432909	     -5.22133359	     22.87495090	     79.11048991	     16.13869983	     -9.16963588	      8.46523004	     28.31989734	     79.37795964
     15.35000000	      1.30135707	     -6.07522430	     -4.72044915	      0.44626094	      0.89897363	      0.72575559	     29.00746859	      8.69685386	      1.64206234	     31.51509465	      0.55004217	      4.63634509	    -12.49597194	     -7.49999987	    -11.75869760	     -7.44143521	     -8.33760801	     33.82342173	      0.59033007	    -10.83426384	    -13.69469603	     -7.49999987	    -11.90724584	      8.67326729	     -0.17466462	     -4.03822476	    -11.79951254	     -5.03019013	     23.07322541	     79.21053473	     15.45428258	     -8.72969073	      8.28701657	     27.82318592	     79.35298429
     15.36666670	      1.88791936	     -5.74455513	     -4.98810518	      0.44631008	      0.90311034	      0.72942167	     26.94291835	      8.65285874	      2.32088452	     31.56258488	      0.55087103	      5.15904941	    -12.91733249	     -7.49999987	     -9.25905849	     -7.53851733	     -8.07944401	     39.81271225	      0.69486291	    -15.35558090	    -14.96041630	     -7.49999987	    -12.57035178	      8.47091980	      0.58414261	     -3.34981813	    -11.62735280	     -4.60887587	     23.02348252	     79.37288041	     14.92679156	     -8.39663292	      7.86557866	     26.87640452	     79.28294789
